<?xml version="1.0" encoding="utf-8"?>
<!-- Generator: Adobe Illustrator 16.0.0, SVG Export Plug-In . SVG Version: 6.00 Build 0)  -->
<!DOCTYPE svg PUBLIC "-//W3C//DTD SVG 1.1//EN" "http://www.w3.org/Graphics/SVG/1.1/DTD/svg11.dtd">
<svg version="1.1" xmlns="http://www.w3.org/2000/svg" xmlns:xlink="http://www.w3.org/1999/xlink" x="0px" y="0px" width="512px"
	 height="512px" viewBox="0 0 512 512" enable-background="new 0 0 512 512" xml:space="preserve">
<g id="Layer_1">
	<g id="svgGrid">
		<line fill="none" stroke="#B35047" x1="32" y1="0" x2="32" y2="512"/>
		<line fill="none" stroke="#B35047" x1="64" y1="0" x2="64" y2="512"/>
		<line fill="none" stroke="#B35047" x1="96" y1="0" x2="96" y2="512"/>
		<line fill="none" stroke="#B35047" x1="128" y1="0" x2="128" y2="512"/>
		<line fill="none" stroke="#B35047" x1="160" y1="0" x2="160" y2="512"/>
		<line fill="none" stroke="#B35047" x1="192" y1="0" x2="192" y2="512"/>
		<line fill="none" stroke="#B35047" x1="224" y1="0" x2="224" y2="512"/>
		<line fill="none" stroke="#B35047" x1="256" y1="0" x2="256" y2="512"/>
		<line fill="none" stroke="#B35047" x1="288" y1="0" x2="288" y2="512"/>
		<line fill="none" stroke="#B35047" x1="320" y1="0" x2="320" y2="512"/>
		<line fill="none" stroke="#B35047" x1="352" y1="0" x2="352" y2="512"/>
		<line fill="none" stroke="#B35047" x1="384" y1="0" x2="384" y2="512"/>
		<line fill="none" stroke="#B35047" x1="416" y1="0" x2="416" y2="512"/>
		<line fill="none" stroke="#B35047" x1="448" y1="0" x2="448" y2="512"/>
		<line fill="none" stroke="#B35047" x1="480" y1="0" x2="480" y2="512"/>
		<line fill="none" stroke="#B35047" x1="0" y1="32" x2="512" y2="32"/>
		<line fill="none" stroke="#B35047" x1="0" y1="64" x2="512" y2="64"/>
		<line fill="none" stroke="#B35047" x1="0" y1="96" x2="512" y2="96"/>
		<line fill="none" stroke="#B35047" x1="0" y1="128" x2="512" y2="128"/>
		<line fill="none" stroke="#B35047" x1="0" y1="160" x2="512" y2="160"/>
		<line fill="none" stroke="#B35047" x1="0" y1="192" x2="512" y2="192"/>
		<line fill="none" stroke="#B35047" x1="0" y1="224" x2="512" y2="224"/>
		<line fill="none" stroke="#B35047" x1="0" y1="256" x2="512" y2="256"/>
		<line fill="none" stroke="#B35047" x1="0" y1="288" x2="512" y2="288"/>
		<line fill="none" stroke="#B35047" x1="0" y1="320" x2="512" y2="320"/>
		<line fill="none" stroke="#B35047" x1="0" y1="352" x2="512" y2="352"/>
		<line fill="none" stroke="#B35047" x1="0" y1="384" x2="512" y2="384"/>
		<line fill="none" stroke="#B35047" x1="0" y1="416" x2="512" y2="416"/>
		<line fill="none" stroke="#B35047" x1="0" y1="448" x2="512" y2="448"/>
		<line fill="none" stroke="#B35047" x1="0" y1="480" x2="512" y2="480"/>
		<rect fill="none" stroke="#B35047" width="512" height="512"/>
	</g>
	<g>
		<path d="M236.201,411.855c-3.721,13.674-9.589,25.271-17.618,34.791c-8.029,9.513-18.511,16.796-31.446,21.855
			c-12.935,5.053-28.769,7.583-47.502,7.583c-11.597,0-22.901-1.338-33.899-4.015c-11.004-2.676-20.894-6.844-29.662-12.489
			c-8.774-5.651-16.057-12.865-21.855-21.632c-5.798-8.774-9.144-19.257-10.036-31.446h28.1c1.484,8.621,4.384,15.835,8.698,21.633
			c4.307,5.799,9.513,10.482,15.611,14.051c6.091,3.568,12.858,6.167,20.294,7.806c7.429,1.63,15.012,2.453,22.748,2.453
			c26.163,0,45.049-7.437,56.646-22.302c11.597-14.873,17.396-36.282,17.396-64.229v-31.223h-0.892
			c-6.544,14.273-16.134,25.724-28.77,34.345c-12.642,8.628-27.431,12.936-44.38,12.936c-18.441,0-34.199-3.046-47.28-9.145
			c-13.088-6.091-23.863-14.496-32.338-25.2c-8.475-10.705-14.649-23.264-18.51-37.69c-3.868-14.42-5.799-29.808-5.799-46.165
			c0-15.757,2.3-30.7,6.914-44.826c4.607-14.12,11.297-26.463,20.072-37.021c8.768-10.552,19.625-18.88,32.561-24.978
			c12.935-6.091,27.724-9.144,44.381-9.144c8.621,0,16.726,1.192,24.309,3.568c7.583,2.383,14.497,5.729,20.741,10.036
			c6.245,4.314,11.82,9.297,16.727,14.942c4.906,5.652,8.698,11.597,11.374,17.841h0.892v-39.697h28.1v211.421
			C241.777,382.863,239.916,398.175,236.201,411.855z M171.749,350.525c9.213-5.199,16.95-12.043,23.194-20.518
			c6.245-8.475,10.928-18.211,14.05-29.215c3.122-10.998,4.684-22.302,4.684-33.899c0-11.297-1.338-22.594-4.015-33.898
			c-2.676-11.297-6.99-21.556-12.935-30.776c-5.952-9.213-13.604-16.65-22.971-22.302c-9.367-5.645-20.741-8.475-34.122-8.475
			c-13.381,0-24.832,2.753-34.345,8.251c-9.521,5.506-17.396,12.712-23.64,21.633s-10.782,19.11-13.604,30.553
			c-2.83,11.451-4.237,23.124-4.237,35.014c0,11.598,1.484,22.901,4.46,33.899c2.969,11.004,7.583,20.74,13.827,29.215
			c6.245,8.475,14.12,15.318,23.64,20.518c9.513,5.206,20.811,7.806,33.899,7.806C151.824,358.331,162.529,355.731,171.749,350.525z
			"/>
		<path d="M323.848,66.178v45.05h-28.101v-45.05H323.848z M323.848,154.493v230.155h-28.101V154.493H323.848z"/>
		<path d="M469.254,154.493v23.64h-46.833v155.221c0,9.22,1.261,16.434,3.791,21.633c2.522,5.206,8.844,8.105,18.956,8.697
			c8.029,0,16.058-0.446,24.086-1.338v23.64c-4.167,0-8.328,0.146-12.488,0.446c-4.168,0.293-8.329,0.446-12.489,0.446
			c-18.733,0-31.822-3.639-39.251-10.928c-7.437-7.283-11.005-20.741-10.705-40.366V178.133h-40.144v-23.64h40.144V85.357h28.101
			v69.135H469.254z"/>
	</g>
</g>
<g id="Layer_2">
</g>
</svg>
