<?xml version="1.0" encoding="utf-8"?>
<!-- Generator: Adobe Illustrator 16.0.0, SVG Export Plug-In . SVG Version: 6.00 Build 0)  -->
<!DOCTYPE svg PUBLIC "-//W3C//DTD SVG 1.1//EN" "http://www.w3.org/Graphics/SVG/1.1/DTD/svg11.dtd">
<svg version="1.1" id="Layer_1" xmlns="http://www.w3.org/2000/svg" xmlns:xlink="http://www.w3.org/1999/xlink" x="0px" y="0px"
	 width="512px" height="512px" viewBox="0 0 512 512" enable-background="new 0 0 512 512" xml:space="preserve">
<g id="svgGrid">
	<line fill="none" stroke="#B35047" x1="32" y1="0" x2="32" y2="512"/>
	<line fill="none" stroke="#B35047" x1="64" y1="0" x2="64" y2="512"/>
	<line fill="none" stroke="#B35047" x1="96" y1="0" x2="96" y2="512"/>
	<line fill="none" stroke="#B35047" x1="128" y1="0" x2="128" y2="512"/>
	<line fill="none" stroke="#B35047" x1="160" y1="0" x2="160" y2="512"/>
	<line fill="none" stroke="#B35047" x1="192" y1="0" x2="192" y2="512"/>
	<line fill="none" stroke="#B35047" x1="224" y1="0" x2="224" y2="512"/>
	<line fill="none" stroke="#B35047" x1="256" y1="0" x2="256" y2="512"/>
	<line fill="none" stroke="#B35047" x1="288" y1="0" x2="288" y2="512"/>
	<line fill="none" stroke="#B35047" x1="320" y1="0" x2="320" y2="512"/>
	<line fill="none" stroke="#B35047" x1="352" y1="0" x2="352" y2="512"/>
	<line fill="none" stroke="#B35047" x1="384" y1="0" x2="384" y2="512"/>
	<line fill="none" stroke="#B35047" x1="416" y1="0" x2="416" y2="512"/>
	<line fill="none" stroke="#B35047" x1="448" y1="0" x2="448" y2="512"/>
	<line fill="none" stroke="#B35047" x1="480" y1="0" x2="480" y2="512"/>
	<line fill="none" stroke="#B35047" x1="0" y1="32" x2="512" y2="32"/>
	<line fill="none" stroke="#B35047" x1="0" y1="64" x2="512" y2="64"/>
	<line fill="none" stroke="#B35047" x1="0" y1="96" x2="512" y2="96"/>
	<line fill="none" stroke="#B35047" x1="0" y1="128" x2="512" y2="128"/>
	<line fill="none" stroke="#B35047" x1="0" y1="160" x2="512" y2="160"/>
	<line fill="none" stroke="#B35047" x1="0" y1="192" x2="512" y2="192"/>
	<line fill="none" stroke="#B35047" x1="0" y1="224" x2="512" y2="224"/>
	<line fill="none" stroke="#B35047" x1="0" y1="256" x2="512" y2="256"/>
	<line fill="none" stroke="#B35047" x1="0" y1="288" x2="512" y2="288"/>
	<line fill="none" stroke="#B35047" x1="0" y1="320" x2="512" y2="320"/>
	<line fill="none" stroke="#B35047" x1="0" y1="352" x2="512" y2="352"/>
	<line fill="none" stroke="#B35047" x1="0" y1="384" x2="512" y2="384"/>
	<line fill="none" stroke="#B35047" x1="0" y1="416" x2="512" y2="416"/>
	<line fill="none" stroke="#B35047" x1="0" y1="448" x2="512" y2="448"/>
	<line fill="none" stroke="#B35047" x1="0" y1="480" x2="512" y2="480"/>
	<rect fill="none" stroke="#B35047" width="512" height="512"/>
</g>
<path d="M134.764,504.51c-28.247,0-52.008-5.203-70.624-15.466c-25.227-13.829-38.573-36.616-38.573-65.886
	c0-29.088,13.04-50.503,38.814-63.858c-5.528-8.096-8.315-18.062-8.315-29.812c0-14.718,2.917-26.314,8.703-34.696
	c-6.831-5.288-13.106-12.492-19.133-21.877c-10.889-16.366-16.411-34.247-16.411-53.144c0-28.16,10.15-51.994,30.17-70.838
	l0.108-0.101c19.113-17.551,42.216-26.45,68.669-26.45c17.615,0,33.805,4.05,49.388,12.368c14.557-0.484,31.526-4.441,49.308-11.517
	l16.437-6.541v79.389l-7.886,2.878c-2.75,1.003-5.751,1.977-9.042,2.93c1.06,4.482,1.774,9.131,1.774,13.746
	c0,24.795-7.604,46.75-22.599,65.257c-15.183,18.727-35.057,30.016-59.073,33.557c-9.682,1.452-10.454,5.388-10.454,10.382
	c0,0.854,0.841,2.607,3.203,4.969l0.459,0.485c3.931,4.395,10.226,7.273,18.709,8.556c27.144,4.177,47.208,11.938,61.372,23.733
	c15.131,12.601,22.804,29.328,22.804,49.716C242.572,454.359,223.868,504.51,134.764,504.51z M75.792,166.459
	c-15.186,14.319-22.567,31.758-22.567,53.312c0,14.309,4.069,27.367,12.439,39.921l0.118,0.181
	c7.559,11.79,14.661,18.244,23.026,20.93l8.333,2.674v17.851l-7.465,3.047c-2.628,1.072-9.611,3.923-9.611,25.114
	c0,11.022,3.5,18.083,11.347,22.893l5.729,3.512v16.452l-8.264,2.707c-27.188,8.906-39.312,23.743-39.312,48.106
	c0,20.542,8.549,35.214,26.135,44.854c15.051,8.297,34.914,12.497,59.062,12.497c75.121,0,83.808-38.935,83.808-68.221
	c0-13.108-4.632-23.338-14.162-31.273c-10.568-8.801-27.267-15.009-49.632-18.45c-13.984-2.113-25.011-7.507-32.753-16.03
	c-6.636-6.725-10-14.025-10-21.705c0-18.736,11.271-31.173,30.923-34.121c18.158-2.677,32.527-10.83,43.959-24.93
	c11.603-14.319,17.244-30.722,17.244-50.145c0-5.54-2.113-12.366-4.179-18.312l-4.386-12.621l13.018-3.01
	c3.958-0.915,7.509-1.824,10.701-2.74v-27.612c-15.922,4.905-31.153,7.461-44.745,7.461h-3.186l-2.767-1.58
	c-12.944-7.395-25.793-10.838-40.435-10.838C107.663,146.382,90.529,152.949,75.792,166.459z M137.487,458.965
	c-17.529,0-30.698-2.747-40.26-8.397c-11.305-6.681-17.28-17.231-17.28-30.512c-0.001-13.218,5.5-23.805,15.907-30.614
	c9.065-5.932,21.499-8.815,38.011-8.815c16.887,0,29.589,2.729,38.832,8.341c10.885,6.609,16.638,17.002,16.638,30.054
	C189.335,433.938,182.6,458.965,137.487,458.965z M133.865,404.626c-14.369,0-21.455,2.663-24.87,4.897
	c-2.497,1.634-5.049,4.163-5.048,10.531c0,4.755,1.539,7.517,5.49,9.851c3.906,2.309,11.943,5.06,28.05,5.06
	c27.848,0,27.848-10.769,27.848-15.944C165.335,415.084,165.335,404.626,133.865,404.626z M428.833,382.372
	c-29.508,0-50.49-11.177-62.363-33.221c-8.313-15.445-12.354-38.127-12.354-69.345V197.74c-3.569,0.204-7.849,0.654-12.284,1.301
	l-13.732,2.003v-58.562c-0.063,0.505-0.129,1.026-0.197,1.562c-0.769,6.072-1.822,14.387-1.82,25.528v158.882
	c0,13.644,1.118,24.316,1.935,32.108c0.196,1.874,0.372,3.552,0.507,5.026l1.198,13.094h-85.333l1.805-13.581
	c0.271-2.037,0.1-8.218-0.065-14.194c-0.157-5.688-0.335-12.136-0.335-19.347V170.605c0-7.14,0.188-13.183,0.34-18.038
	c0.185-5.924,0.331-10.603,0.021-13.577l-1.383-13.246l109.345,0l0.001-11.285c0.007-7.323,0.012-13.648-0.66-16.718l-3.191-14.567
	h89.856l-3.188,14.565c-0.939,4.291-2.059,10.899-2.059,18.01v9.996h44.465v73.423h-12c-0.528,0-1.027,0.016-1.551,0.03
	c-0.804,0.022-1.647,0.045-2.634,0.045c-1.771,0-3.553-0.071-5.608-0.224c-1.441-0.105-2.938-0.155-4.696-0.155
	c-1.105,0-2.184,0.018-3.264,0.036c-1.213,0.02-2.428,0.039-3.679,0.039h-11.033v83.454c0,22.676,7.208,22.676,10.672,22.676
	c8.012,0,14.548-2.027,22.56-6.996l18.325-11.367v80.204l-5.949,3.474C467.05,378.227,449.189,382.372,428.833,382.372z
	 M358.021,173.616l0.765,0.024l19.331,1.233v104.933c0,26.771,3.191,46.273,9.484,57.967c4.763,8.841,14.22,20.599,41.232,20.599
	c13.062,0,24.524-1.981,33.6-5.771v-25.797c-5.44,1.537-10.978,2.264-16.885,2.264c-11.693,0-21.058-4.881-27.081-14.114
	c-5.107-7.831-7.591-18.482-7.591-32.562V174.938h35.033c1.119,0,2.206-0.018,3.291-0.036c2.055-0.033,4.202-0.056,6.141-0.01
	v-25.148h-44.465v-33.996c0-2.966,0.146-5.849,0.384-8.575h-33.163c0.025,2.252,0.023,4.678,0.021,7.306l-0.001,35.265H352.1v24.074
	C354.238,173.685,356.229,173.616,358.021,173.616z M270.237,354.682h33.078c-0.639-7.076-1.233-15.927-1.233-26.229v-158.88
	c-0.002-7.873,0.448-14.403,0.993-19.829h-32.846c-0.032,1.146-0.069,2.335-0.108,3.572c-0.153,4.933-0.328,10.524-0.328,17.289
	V331.56c0,6.88,0.173,13.15,0.326,18.684C270.163,351.819,270.203,353.296,270.237,354.682z M130.243,268
	c-28.348,0-44.606-17.39-44.606-47.711c0-15.635,3.706-27.915,11.015-36.5c7.794-9.155,19.096-13.797,33.591-13.797
	c14.114,0,25.861,5.799,33.972,16.769l0.336,0.479c6.146,9.222,9.262,20.167,9.262,32.534C173.812,250.422,157.932,268,130.243,268z
	 M130.243,193.992c-9.97,0-20.606,2.032-20.606,26.297c0,14.639,3.447,23.711,20.606,23.711c18.059,0,19.57-11.968,19.57-24.227
	c0-7.532-1.659-13.743-5.069-18.975C141.174,196.094,136.688,193.992,130.243,193.992z M287.588,108.597
	c-13.425,0-24.997-5.115-34.395-15.202c-9.178-9.854-13.831-21.66-13.831-35.092c0-13.778,4.653-25.758,13.831-35.608
	c9.402-10.089,20.974-15.206,34.395-15.206c13.078,0,24.478,5.115,33.882,15.204c9.175,9.848,13.826,21.828,13.826,35.609
	c0,13.434-4.65,25.24-13.822,35.089C312.069,103.482,300.67,108.597,287.588,108.597z M287.588,31.49
	c-6.676,0-12.025,2.404-16.836,7.567c-4.973,5.336-7.39,11.632-7.39,19.247c0,7.265,2.418,13.393,7.392,18.733
	c4.806,5.158,10.155,7.561,16.834,7.561c6.328,0,11.516-2.403,16.325-7.563c4.967-5.334,7.383-11.461,7.383-18.73
	c0-7.618-2.415-13.914-7.385-19.247C299.101,33.895,293.913,31.49,287.588,31.49z"/>
</svg>
