<?xml version="1.0" encoding="utf-8"?>
<!-- Generator: Adobe Illustrator 16.0.0, SVG Export Plug-In . SVG Version: 6.00 Build 0)  -->
<!DOCTYPE svg PUBLIC "-//W3C//DTD SVG 1.1//EN" "http://www.w3.org/Graphics/SVG/1.1/DTD/svg11.dtd">
<svg version="1.1" id="Layer_1" xmlns="http://www.w3.org/2000/svg" xmlns:xlink="http://www.w3.org/1999/xlink" x="0px" y="0px"
	 width="512px" height="512px" viewBox="0 0 512 512" enable-background="new 0 0 512 512" xml:space="preserve">
<g id="svgGrid">
	<line fill="none" stroke="#B35047" x1="32" y1="0" x2="32" y2="512"/>
	<line fill="none" stroke="#B35047" x1="64" y1="0" x2="64" y2="512"/>
	<line fill="none" stroke="#B35047" x1="96" y1="0" x2="96" y2="512"/>
	<line fill="none" stroke="#B35047" x1="128" y1="0" x2="128" y2="512"/>
	<line fill="none" stroke="#B35047" x1="160" y1="0" x2="160" y2="512"/>
	<line fill="none" stroke="#B35047" x1="192" y1="0" x2="192" y2="512"/>
	<line fill="none" stroke="#B35047" x1="224" y1="0" x2="224" y2="512"/>
	<line fill="none" stroke="#B35047" x1="256" y1="0" x2="256" y2="512"/>
	<line fill="none" stroke="#B35047" x1="288" y1="0" x2="288" y2="512"/>
	<line fill="none" stroke="#B35047" x1="320" y1="0" x2="320" y2="512"/>
	<line fill="none" stroke="#B35047" x1="352" y1="0" x2="352" y2="512"/>
	<line fill="none" stroke="#B35047" x1="384" y1="0" x2="384" y2="512"/>
	<line fill="none" stroke="#B35047" x1="416" y1="0" x2="416" y2="512"/>
	<line fill="none" stroke="#B35047" x1="448" y1="0" x2="448" y2="512"/>
	<line fill="none" stroke="#B35047" x1="480" y1="0" x2="480" y2="512"/>
	<line fill="none" stroke="#B35047" x1="0" y1="32" x2="512" y2="32"/>
	<line fill="none" stroke="#B35047" x1="0" y1="64" x2="512" y2="64"/>
	<line fill="none" stroke="#B35047" x1="0" y1="96" x2="512" y2="96"/>
	<line fill="none" stroke="#B35047" x1="0" y1="128" x2="512" y2="128"/>
	<line fill="none" stroke="#B35047" x1="0" y1="160" x2="512" y2="160"/>
	<line fill="none" stroke="#B35047" x1="0" y1="192" x2="512" y2="192"/>
	<line fill="none" stroke="#B35047" x1="0" y1="224" x2="512" y2="224"/>
	<line fill="none" stroke="#B35047" x1="0" y1="256" x2="512" y2="256"/>
	<line fill="none" stroke="#B35047" x1="0" y1="288" x2="512" y2="288"/>
	<line fill="none" stroke="#B35047" x1="0" y1="320" x2="512" y2="320"/>
	<line fill="none" stroke="#B35047" x1="0" y1="352" x2="512" y2="352"/>
	<line fill="none" stroke="#B35047" x1="0" y1="384" x2="512" y2="384"/>
	<line fill="none" stroke="#B35047" x1="0" y1="416" x2="512" y2="416"/>
	<line fill="none" stroke="#B35047" x1="0" y1="448" x2="512" y2="448"/>
	<line fill="none" stroke="#B35047" x1="0" y1="480" x2="512" y2="480"/>
	<rect fill="none" stroke="#B35047" width="512" height="512"/>
</g>
<path d="M187.569,433.033c-47.495,0-93.741-13.556-133.739-39.201L2.584,360.976l60.45,7.169c5.903,0.7,11.955,1.055,17.988,1.055
	c23.218,0,45.546-5.108,65.902-14.954c-25.18-10.751-45.191-31.999-53.897-59.18l-7.192-22.451l2.442,0.467
	c-15.486-17.235-24.774-39.964-24.774-64.411c0-0.466,0.001-0.931,0.013-1.392l0.589-23.11l8.496,4.721
	c-5.481-12.224-8.426-25.636-8.426-39.474c0-17.037,4.513-33.785,13.051-48.433l10.177-17.46l12.77,15.665
	c35.786,43.899,87.101,72.252,142.737,79.377c-0.037-1.093-0.055-2.188-0.055-3.284c0-53.107,43.207-96.312,96.316-96.312
	c23.793,0,46.852,8.914,64.44,24.691c14.326-3.538,28.014-9.146,40.775-16.715l31.702-18.802l-11.226,35.107
	c-1.627,5.089-3.669,10.006-6.09,14.705l42.325-18.768l-26.848,40.161c-10.643,15.919-23.574,29.902-38.507,41.648
	c0.02,1.282,0.029,2.56,0.029,3.83c0,60.213-23.262,121.138-63.822,167.153c-22.058,25.025-48.311,44.694-78.028,58.461
	C261.558,425.431,225.774,433.033,187.569,433.033z M117.43,393.554c22.473,7.572,46.126,11.479,70.139,11.479
	c82.893,0,134.599-38.92,163.377-71.57c36.114-40.972,56.827-95.148,56.827-148.639c0-3.308-0.075-6.682-0.225-10.027l-0.336-7.553
	l6.132-4.423c2.109-1.521,4.176-3.094,6.197-4.715c-0.848,0.113-1.696,0.221-2.546,0.322l-65.049,7.775l56.189-33.684
	c0.998-0.599,1.979-1.221,2.941-1.865c-3.017,0.759-6.056,1.439-9.119,2.042l-7.607,1.498l-5.305-5.653
	c-12.867-13.71-31.047-21.574-49.876-21.574c-37.67,0-68.316,30.645-68.316,68.312c0,5.31,0.594,10.553,1.766,15.584l4.213,18.089
	l-18.55-0.931c-62.202-3.123-120.938-29.76-164.378-73.915c-1.145,4.997-1.73,10.132-1.73,15.309
	c0,22.893,11.364,44.155,30.398,56.875l40.671,27.18l-48.892-1.546c-6.627-0.21-13.228-1.117-19.667-2.686
	c7.358,23.194,26.832,41.445,51.606,46.422l58.1,11.67l-57.179,15.564c-5.761,1.568-11.667,2.596-17.637,3.071
	c12.365,16.921,32.151,27.597,53.938,27.996l39.375,0.724l-30.996,24.293C169.716,376.358,144.43,388.044,117.43,393.554z"/>
</svg>
